<svg width="95" height="78" viewBox="0 0 95 78" fill="none" xmlns="http://www.w3.org/2000/svg">
<g clip-path="url(#clip0_3755_2645)">
<path d="M38.1676 16.1754H37.8247V5.92985C37.8247 5.15113 37.684 4.38004 37.4108 3.6606C37.1376 2.94116 36.7371 2.28745 36.2322 1.73682C35.7273 1.18618 35.1279 0.749388 34.4683 0.451385C33.8086 0.153382 33.1016 6.59792e-07 32.3876 0H12.4849C11.0429 -2.99809e-06 9.65998 0.624743 8.64033 1.7368C7.62069 2.84886 7.04785 4.35714 7.04785 5.92983V62.1378C7.04785 62.9165 7.18848 63.6876 7.46172 64.407C7.73496 65.1264 8.13545 65.7802 8.64032 66.3308C9.1452 66.8814 9.74458 67.3182 10.4042 67.6162C11.0639 67.9142 11.7709 68.0676 12.4849 68.0676H32.3876C33.8296 68.0676 35.2125 67.4429 36.2322 66.3308C37.2518 65.2187 37.8247 63.7105 37.8247 62.1378V23.4684H38.1676V16.1754Z" fill="#3F3D56"/>
<path d="M32.6067 1.54297H30.0088C30.1282 1.86243 30.1738 2.20903 30.1416 2.55224C30.1093 2.89545 30.0001 3.22473 29.8237 3.51109C29.6472 3.79744 29.4089 4.03207 29.1297 4.19431C28.8505 4.35656 28.5391 4.44143 28.2227 4.44145H16.8207C16.5044 4.44143 16.1929 4.35656 15.9137 4.19432C15.6346 4.03207 15.3962 3.79744 15.2198 3.51109C15.0433 3.22474 14.9342 2.89545 14.9019 2.55224C14.8696 2.20903 14.9152 1.86243 15.0347 1.54297H12.6082C12.075 1.54297 11.547 1.65751 11.0544 1.88006C10.5617 2.1026 10.1141 2.42879 9.7371 2.84C9.36006 3.25121 9.06098 3.73939 8.85693 4.27666C8.65288 4.81393 8.54785 5.38977 8.54785 5.97131V62.0968C8.54785 62.6783 8.65288 63.2541 8.85693 63.7914C9.06098 64.3287 9.36006 64.8169 9.73709 65.2281C10.1141 65.6393 10.5617 65.9655 11.0544 66.188C11.547 66.4106 12.075 66.5251 12.6082 66.5251H32.6067C33.1399 66.5251 33.6679 66.4106 34.1605 66.188C34.6532 65.9655 35.1008 65.6393 35.4778 65.2281C35.8549 64.8169 36.1539 64.3287 36.358 63.7914C36.562 63.2541 36.6671 62.6783 36.6671 62.0968V5.97131C36.6671 5.38977 36.562 4.81393 36.358 4.27666C36.1539 3.73938 35.8549 3.25121 35.4778 2.84C35.1008 2.42879 34.6532 2.1026 34.1605 1.88006C33.6679 1.65751 33.1399 1.54297 32.6067 1.54297Z" fill="white"/>
<path d="M44.547 68.0774H0.668877C0.638333 68.0774 0.60904 68.0641 0.587442 68.0406C0.565844 68.017 0.553711 67.9851 0.553711 67.9518C0.553711 67.9185 0.565844 67.8865 0.587442 67.863C0.60904 67.8394 0.638333 67.8262 0.668877 67.8262H44.547C44.5775 67.8262 44.6068 67.8394 44.6284 67.863C44.65 67.8865 44.6622 67.9185 44.6622 67.9518C44.6622 67.9851 44.65 68.017 44.6284 68.0406C44.6068 68.0641 44.5775 68.0774 44.547 68.0774Z" fill="#CBCBCB"/>
<path d="M22.6091 43.4186C27.9802 43.4186 32.3344 38.6698 32.3344 32.8119C32.3344 26.9539 27.9802 22.2051 22.6091 22.2051C17.238 22.2051 12.8838 26.9539 12.8838 32.8119C12.8838 38.6698 17.238 43.4186 22.6091 43.4186Z" fill="#003679"/>
<path d="M21.6437 36.858C21.425 36.8584 21.212 36.7812 21.0369 36.638L21.0261 36.6291L18.7405 34.7223C18.6346 34.6338 18.5458 34.5234 18.4791 34.3974C18.4123 34.2715 18.369 34.1324 18.3515 33.9882C18.3341 33.844 18.3428 33.6974 18.3773 33.5569C18.4117 33.4164 18.4712 33.2846 18.5524 33.1692C18.6335 33.0537 18.7348 32.9568 18.8502 32.884C18.9657 32.8113 19.0932 32.764 19.2255 32.7449C19.3577 32.7259 19.4921 32.7354 19.6209 32.773C19.7498 32.8106 19.8706 32.8755 19.9764 32.964L21.4568 34.2022L24.9551 29.2246C25.0363 29.1092 25.1374 29.0124 25.2529 28.9396C25.3683 28.8668 25.4957 28.8196 25.6279 28.8006C25.7601 28.7815 25.8944 28.791 26.0232 28.8286C26.152 28.8662 26.2728 28.9311 26.3786 29.0195L26.3789 29.0198L26.3572 29.0527L26.3795 29.0198C26.5929 29.1987 26.7326 29.4627 26.7678 29.7538C26.803 30.0449 26.7309 30.3394 26.5673 30.5726L22.4525 36.4247C22.3573 36.5595 22.2349 36.6686 22.0948 36.7435C21.9547 36.8184 21.8007 36.8572 21.6446 36.8567L21.6437 36.858Z" fill="white"/>
<path d="M80.5069 69.1191C80.6252 68.9105 80.7645 68.7169 80.9221 68.5419C80.9872 68.4684 81.0557 68.3991 81.1264 68.3317C81.5565 67.9143 82.0806 67.6293 82.6451 67.506C83.2096 67.3828 83.794 67.4258 84.3381 67.6305C84.8823 67.8353 85.3667 68.1944 85.7415 68.671C86.1162 69.1476 86.3678 69.7244 86.4704 70.3422C86.9453 68.4265 85.7089 66.5395 84.4658 65.0901C83.222 63.6411 81.8005 62.0516 81.8076 60.0661C81.8111 58.9614 82.3066 57.9758 83.0548 57.245C83.0779 57.2229 83.101 57.2008 83.1245 57.1795C84.0288 56.3341 85.1922 55.8919 86.3823 55.9412C88.5934 56.0704 90.524 57.6911 91.8647 59.6136C94.0228 62.7068 94.9685 67.0489 93.4577 70.5701C92.1288 73.667 89.2946 75.5061 86.402 76.9845C85.9981 77.191 85.595 77.3913 85.1927 77.5853C85.1901 77.5861 85.1872 77.5882 85.1845 77.5889C85.1651 77.5982 85.1457 77.6075 85.1276 77.6171C85.0446 77.657 84.9615 77.697 84.8792 77.7364L84.9173 77.7636L85.0362 77.8476C84.995 77.8204 84.9542 77.7939 84.913 77.7667C84.9007 77.7585 84.8878 77.7507 84.8755 77.7424C83.4549 76.8128 82.0144 75.8292 81.033 74.3778C80.0151 72.8708 79.6059 70.7122 80.5069 69.1191Z" fill="#F1F1F1"/>
<path d="M89.984 65.6193C90.2986 66.3998 90.5072 67.2261 90.6031 68.0723C90.6786 68.8268 90.6502 69.5894 90.5189 70.3347C90.2368 71.8664 89.6216 73.3018 88.725 74.5202C88.0485 75.4451 87.2676 76.2732 86.4007 76.9845C85.9969 77.191 85.5938 77.3913 85.1914 77.5853C85.1888 77.5861 85.1859 77.5882 85.1832 77.5889C85.1639 77.5982 85.1445 77.6075 85.1263 77.6171C85.0433 77.657 84.9602 77.697 84.8779 77.7364L84.9161 77.7636L85.035 77.8476C84.9938 77.8204 84.953 77.7939 84.9117 77.7667C84.8995 77.7585 84.8865 77.7507 84.8743 77.7424C85.1869 76.5497 85.2329 75.2926 85.0083 74.0765C84.7837 72.8604 84.2952 71.7207 83.5836 70.753C82.8682 69.7974 81.9558 69.0398 80.9209 68.5419C80.9859 68.4684 81.0545 68.3991 81.1252 68.3316C81.5238 68.5313 81.9055 68.769 82.2657 69.0419C83.5541 70.0131 84.5216 71.411 85.0249 73.0286C85.4743 74.4961 85.5304 76.0729 85.1867 77.574C85.258 77.5231 85.3296 77.4709 85.3992 77.419C86.7227 76.4456 87.9424 75.2766 88.8612 73.843C89.6536 72.6314 90.1607 71.2259 90.3378 69.7502C90.5139 68.1383 90.144 66.5531 89.4842 65.1148C88.7555 63.576 87.8373 62.1531 86.7552 60.8857C85.6683 59.5832 84.4393 58.4308 83.0957 57.4539C83.0654 57.4316 83.0442 57.3975 83.0363 57.3586C83.0285 57.3197 83.0346 57.279 83.0535 57.2449C83.0679 57.2139 83.093 57.1903 83.1232 57.1794C83.1386 57.1751 83.1547 57.1746 83.1702 57.1781C83.1857 57.1815 83.2004 57.1887 83.213 57.1992C83.3789 57.3199 83.5433 57.4416 83.7058 57.5671C85.0589 58.612 86.2877 59.8362 87.364 61.2116C88.4041 62.5373 89.3506 64.0103 89.984 65.6193Z" fill="white"/>
<path d="M61.0214 4.9251C62.1621 4.9251 63.0868 3.91658 63.0868 2.67251C63.0868 1.42844 62.1621 0.419922 61.0214 0.419922C59.8808 0.419922 58.9561 1.42844 58.9561 2.67251C58.9561 3.91658 59.8808 4.9251 61.0214 4.9251Z" fill="#F1F1F1"/>
<path d="M86.7036 35.07C87.399 35.07 87.9628 34.4551 87.9628 33.6966C87.9628 32.9381 87.399 32.3232 86.7036 32.3232C86.0081 32.3232 85.4443 32.9381 85.4443 33.6966C85.4443 34.4551 86.0081 35.07 86.7036 35.07Z" fill="#F1F1F1"/>
<path d="M49.8481 38.8385C50.5436 38.8385 51.1074 38.2236 51.1074 37.4652C51.1074 36.7067 50.5436 36.0918 49.8481 36.0918C49.1527 36.0918 48.5889 36.7067 48.5889 37.4652C48.5889 38.2236 49.1527 38.8385 49.8481 38.8385Z" fill="#F1F1F1"/>
<path d="M50.5595 78.0002H94.4376C94.4682 78.0002 94.4975 77.987 94.5191 77.9634C94.5407 77.9399 94.5528 77.9079 94.5528 77.8746C94.5528 77.8413 94.5407 77.8094 94.5191 77.7858C94.4975 77.7623 94.4682 77.749 94.4376 77.749H50.5595C50.529 77.749 50.4997 77.7623 50.4781 77.7858C50.4565 77.8094 50.4443 77.8413 50.4443 77.8746C50.4443 77.9079 50.4565 77.9399 50.4781 77.9634C50.4997 77.987 50.529 78.0002 50.5595 78.0002Z" fill="#CBCBCB"/>
<path d="M89.5969 12.1381C89.6545 11.6919 89.56 11.2382 89.3314 10.863C89.1028 10.4877 88.756 10.2169 88.3565 10.102C87.9571 9.98698 87.5329 10.0358 87.1643 10.2391C86.7957 10.4425 86.5083 10.7863 86.3565 11.2053L82.7959 15.6572L83.8406 18.8396L87.4215 13.6377C87.6551 13.7193 87.9024 13.7441 88.1458 13.7103C88.3892 13.6764 88.6228 13.5848 88.8302 13.4418C89.0376 13.2988 89.2137 13.108 89.3462 12.8827C89.4786 12.6575 89.5642 12.4033 89.5969 12.1381Z" fill="#FFB7B7"/>
<path d="M74.8367 29.462L86.656 15.7047L85.0618 12.9404L70.2373 26.6142L74.8367 29.462Z" fill="#3F3D56"/>
<path d="M72.1997 21.1021C74.4894 21.1021 76.3456 19.0776 76.3456 16.5803C76.3456 14.0831 74.4894 12.0586 72.1997 12.0586C69.9099 12.0586 68.0537 14.0831 68.0537 16.5803C68.0537 19.0776 69.9099 21.1021 72.1997 21.1021Z" fill="#2F2E41"/>
<path d="M72.5342 14.0252C73.4263 13.0385 74.5059 12.2771 75.697 11.7946C76.4615 11.4857 77.2937 11.2948 78.093 11.4702C78.8923 11.6457 79.6482 12.2487 79.8712 13.1041C80.0536 13.8035 79.8653 14.5565 79.5823 15.2149C79.2993 15.8733 78.9215 16.4838 78.6927 17.1668C78.4592 17.8636 78.389 18.613 78.4884 19.347C78.5878 20.081 78.8538 20.7762 79.262 21.3697C79.6703 21.9631 80.2081 22.4359 80.8264 22.7452C81.4447 23.0545 82.1241 23.1905 82.8029 23.1408C82.0175 23.2556 81.2936 23.6581 80.5259 23.8724C79.7583 24.0867 78.8522 24.0721 78.2818 23.4723C77.6782 22.8377 77.6661 21.8059 77.6953 20.8921C77.7387 19.5337 77.7821 18.1753 77.8254 16.8169C77.8476 16.1241 77.8665 15.4092 77.6374 14.7626C77.4083 14.116 76.8639 13.5498 76.2284 13.5557C75.7467 13.5601 75.3203 13.8784 74.9341 14.1922C74.5478 14.5061 74.1389 14.841 73.6591 14.8876C73.1793 14.9343 72.6315 14.5471 72.6674 14.0232L72.5342 14.0252Z" fill="#2F2E41"/>
<path d="M56.4526 46.9405C56.0545 47.0611 55.6298 47.0183 55.2588 46.8201C54.8878 46.622 54.5963 46.2823 54.4396 45.8655C54.2829 45.4486 54.2718 44.9835 54.4085 44.5584C54.5452 44.1332 54.8202 43.7775 55.1812 43.5587L58.7629 39.127L61.7924 39.8408L57.5315 44.3924C57.6363 44.6344 57.6911 44.8985 57.6921 45.1661C57.6932 45.4337 57.6404 45.6982 57.5375 45.9412C57.4347 46.1841 57.2842 46.3995 57.0967 46.5722C56.9093 46.7448 56.6894 46.8706 56.4526 46.9405H56.4526Z" fill="#FFB7B7"/>
<path d="M68.2371 31.0748L59.31 43.296L56.5889 41.9334L67.0816 24.1172L68.2371 31.0748Z" fill="#3F3D56"/>
<path d="M61.1129 67.9778L58.9854 67.9414L59.2412 75.8502H61.1125L61.1129 67.9778Z" fill="#FFB7B7"/>
<path d="M61.5918 75.1838L57.9064 75.1836H57.9063C57.2834 75.1836 56.686 75.4535 56.2456 75.9339C55.8051 76.4142 55.5577 77.0657 55.5576 77.7451V77.8283L61.5917 77.8286L61.5918 75.1838Z" fill="#2F2E41"/>
<path d="M75.2001 65.8809L72.876 67.5082L77.525 73.6081L79.0998 72.5055L75.2001 65.8809Z" fill="#FFB7B7"/>
<path d="M79.1723 71.6631L76.071 73.8346L76.0709 73.8347C75.5468 74.2018 75.1778 74.7809 75.0451 75.4446C74.9124 76.1084 75.027 76.8024 75.3635 77.3741L75.4047 77.4441L80.4824 73.8887L79.1723 71.6631Z" fill="#2F2E41"/>
<path d="M76.0278 41.7305C76.0278 41.7305 70.8638 23.0247 69.2043 22.7719C67.5447 22.5191 64.8708 27.5716 64.8708 27.5716C61.404 32.3958 57.8291 48.0225 57.8291 48.0225C57.8291 48.0225 63.7885 48.4292 68.1449 50.957C72.5012 53.4848 77.6423 50.829 77.6423 50.829L76.0278 41.7305Z" fill="#3F3D56"/>
<path opacity="0.1" d="M76.0278 41.7314C76.0278 41.7314 70.8638 23.0255 69.2043 22.7728C67.5447 22.52 65.5499 27.6237 65.5499 27.6237C63.8224 35.4112 57.8291 48.0234 57.8291 48.0234C57.8291 48.0234 63.7885 48.4301 68.1449 50.9579C72.5012 53.4857 77.6423 50.83 77.6423 50.83L76.0278 41.7314Z" fill="black"/>
<path d="M71.7925 36.1341V45.5337L72.8068 59.1496L77.8741 69.4491L75.4556 71.3332L68.5456 61.5361L65.8127 51.8082L61.5205 73.3429L58.2959 73.0916L60.5354 43.2342L64.7851 34.8301L71.7925 36.1341Z" fill="#2F2E41"/>
<path d="M66.5838 27.042C64.9715 28.8005 66.4686 30.6845 66.4686 30.6845L64.626 35.2063L71.8814 37.3415L74.4169 24.9848L72.6894 22.9752C69.2345 22.8496 69.2326 22.7715 69.2326 22.7715C68.6273 23.4176 66.5838 27.042 66.5838 27.042Z" fill="#003679"/>
<path d="M74.7116 23.7049C74.3821 23.4396 74.0076 23.2483 73.6098 23.142C73.212 23.0356 72.7988 23.0165 72.3941 23.0855C71.9895 23.1546 71.6014 23.3106 71.2524 23.5444C70.9034 23.7782 70.6004 24.0852 70.361 24.4476C68.537 27.2175 66.8505 31.6901 69.1742 37.2682C72.9055 46.225 76.1525 50.8101 77.4725 50.8096C77.5301 50.8102 77.5875 50.8003 77.6422 50.7806C78.4547 50.4799 79.6295 48.9804 79.8421 47.659C79.9183 47.186 79.9002 46.5272 79.3815 46.0748C77.8918 44.7753 75.2174 40.7289 74.3831 35.403C73.9221 32.4602 74.8162 29.7795 75.6474 28.049C75.9985 27.3329 76.1012 26.5028 75.9367 25.7109C75.7722 24.9189 75.3515 24.2182 74.7517 23.7371L74.7116 23.7049Z" fill="#3F3D56"/>
<path d="M72.4133 20.6568C73.8923 19.775 74.4358 17.7526 73.6273 16.1396C72.8188 14.5266 70.9645 13.9338 69.4855 14.8156C68.0066 15.6973 67.463 17.7197 68.2715 19.3327C69.08 20.9458 70.9343 21.5386 72.4133 20.6568Z" fill="#FFB7B7"/>
<path d="M66.6572 17.4852H71.0641L71.1093 16.7952L71.3353 17.4852H72.0138L72.1034 16.1176L72.5512 17.4852H73.8642V17.4175C73.8632 16.4653 73.516 15.5525 72.8987 14.8792C72.2814 14.206 71.4444 13.8272 70.5714 13.8262H69.9501C69.0771 13.8272 68.2401 14.206 67.6228 14.8792C67.0055 15.5525 66.6582 16.4653 66.6572 17.4175V17.4852Z" fill="#2F2E41"/>
<path d="M73.198 19.9648L75.0786 19.2993V14.3184H71.5264L71.6143 14.4141C72.8379 15.7469 74.1987 20.4754 73.198 19.9648Z" fill="#2F2E41"/>
</g>
<defs>
<clipPath id="clip0_3755_2645">
<rect width="94" height="78" fill="white" transform="translate(0.553711)"/>
</clipPath>
</defs>
</svg>
