<svg width="24" height="25" viewBox="0 0 24 25" fill="none" xmlns="http://www.w3.org/2000/svg">
<path d="M12 9.03039C10.065 9.03039 8.505 10.6054 8.505 12.5254C8.505 14.4454 10.08 16.0204 12 16.0204C13.92 16.0204 15.495 14.4454 15.495 12.5254C15.495 10.6054 13.92 9.03039 12 9.03039ZM22.5 12.5254C22.5 11.0704 22.5 9.64539 22.425 8.19039C22.35 6.51039 21.96 5.01039 20.73 3.79539C19.5 2.56539 18.015 2.17539 16.335 2.10039C14.88 2.02539 13.455 2.02539 12 2.02539C10.545 2.02539 9.12 2.02539 7.665 2.10039C5.985 2.17539 4.485 2.56539 3.27 3.79539C2.04 5.02539 1.65 6.51039 1.575 8.19039C1.5 9.64539 1.5 11.0704 1.5 12.5254C1.5 13.9804 1.5 15.4054 1.575 16.8604C1.65 18.5404 2.04 20.0404 3.27 21.2554C4.5 22.4854 5.985 22.8754 7.665 22.9504C9.12 23.0254 10.545 23.0254 12 23.0254C13.455 23.0254 14.88 23.0254 16.335 22.9504C18.015 22.8754 19.515 22.4854 20.73 21.2554C21.96 20.0254 22.35 18.5404 22.425 16.8604C22.515 15.4204 22.5 13.9804 22.5 12.5254ZM12 17.9104C9.015 17.9104 6.615 15.5104 6.615 12.5254C6.615 9.54039 9.015 7.14039 12 7.14039C14.985 7.14039 17.385 9.54039 17.385 12.5254C17.385 15.5104 14.985 17.9104 12 17.9104ZM17.61 8.17539C16.92 8.17539 16.35 7.62039 16.35 6.91539C16.35 6.21039 16.905 5.65539 17.61 5.65539C18.315 5.65539 18.87 6.21039 18.87 6.91539C18.8738 7.0797 18.8438 7.24303 18.7819 7.39526C18.7199 7.5475 18.6274 7.68539 18.51 7.80039C18.395 7.9178 18.2571 8.01034 18.1049 8.07226C17.9526 8.13419 17.7893 8.16419 17.625 8.16039L17.61 8.17539Z" fill="#F8F8F8"/>
</svg>
