<svg width="24" height="25" viewBox="0 0 24 25" fill="none" xmlns="http://www.w3.org/2000/svg">
<path d="M21 3.52539H3.75C3.33516 3.52539 3 3.86055 3 4.27539V21.5254C3 21.9402 3.33516 22.2754 3.75 22.2754H21C21.4148 22.2754 21.75 21.9402 21.75 21.5254V4.27539C21.75 3.86055 21.4148 3.52539 21 3.52539ZM8.56172 19.5027H5.77969V10.5543H8.56172V19.5027ZM7.17188 9.33086C6.85295 9.33086 6.54119 9.23629 6.27602 9.0591C6.01084 8.88192 5.80417 8.63008 5.68212 8.33544C5.56007 8.04079 5.52814 7.71657 5.59036 7.40378C5.65258 7.09098 5.80615 6.80366 6.03167 6.57815C6.25718 6.35264 6.5445 6.19906 6.85729 6.13684C7.17009 6.07462 7.49431 6.10656 7.78895 6.2286C8.0836 6.35065 8.33544 6.55733 8.51262 6.8225C8.6898 7.08768 8.78437 7.39944 8.78437 7.71836C8.78203 8.60898 8.06016 9.33086 7.17188 9.33086ZM18.9773 19.5027H16.1977V15.1504C16.1977 14.1121 16.1789 12.7785 14.7516 12.7785C13.3055 12.7785 13.0828 13.9082 13.0828 15.0754V19.5027H10.3055V10.5543H12.9727V11.7777H13.0102C13.3805 11.0746 14.2875 10.3316 15.6422 10.3316C18.4594 10.3316 18.9773 12.1855 18.9773 14.5949V19.5027Z" fill="#F8F8F8"/>
</svg>
