<svg width="24" height="25" viewBox="0 0 24 25" fill="none" xmlns="http://www.w3.org/2000/svg">
<g clip-path="url(#clip0_3757_2729)">
<path d="M14.5544 18.094C14.17 17.3018 13.6731 16.7253 12.8153 17.0768L11.1231 17.705C9.76842 18.3331 9.09342 17.705 8.41373 16.7581L5.36686 9.82995C4.98248 9.03776 5.18405 8.29245 6.04186 7.94089L8.40905 6.99401C9.26686 6.63776 9.13092 5.89714 8.74655 5.10495L6.71686 1.32683C6.33248 0.534639 5.54498 0.342451 4.68717 0.694014C2.97623 1.40183 1.55123 2.51276 0.632483 4.15808C-0.492517 6.16901 0.0699829 8.96745 0.294983 10.144C0.519983 11.3206 1.30748 13.3831 2.32467 15.4971C3.34186 17.6159 4.23248 19.28 5.02936 20.2221C5.82623 21.1643 7.73873 23.7425 10.1059 24.319C12.0465 24.7878 14.1419 24.394 15.8575 23.6862C16.72 23.3346 16.72 22.5893 16.3356 21.7925L14.5544 18.094ZM23.9622 9.75026H15.6512L19.345 6.05651H16.5747L11.9575 10.6737L16.5747 15.2909H19.345L15.6512 11.5971H23.9622V9.75026Z" fill="#F8F8F8"/>
</g>
<defs>
<clipPath id="clip0_3757_2729">
<rect width="24" height="24" fill="white" transform="translate(0 0.525391)"/>
</clipPath>
</defs>
</svg>
