<svg width="24" height="25" viewBox="0 0 24 25" fill="none" xmlns="http://www.w3.org/2000/svg">
<g clip-path="url(#clip0_3757_2735)">
<path d="M23.9632 2.87435C23.9525 2.71765 23.8959 2.56756 23.8005 2.44279C23.7051 2.31803 23.5751 2.22412 23.4266 2.17276C23.2782 2.12141 23.1179 2.11488 22.9658 2.154C22.8137 2.19312 22.6764 2.27616 22.5712 2.39275C22.0481 2.97956 21.3671 3.40337 20.6096 3.61355C19.5881 2.65727 18.2409 2.1258 16.8416 2.12715C16.098 2.12757 15.3618 2.27445 14.6749 2.5594C13.9881 2.84435 13.3641 3.26179 12.8386 3.78789C12.3131 4.31399 11.8964 4.93845 11.6122 5.6256C11.328 6.31276 11.182 7.04916 11.1824 7.79275V8.49675C6.3968 8.12715 3.84 4.49035 3.1472 2.64715C3.09267 2.50109 2.99665 2.37414 2.87093 2.28191C2.74522 2.18969 2.59529 2.13621 2.43959 2.12805C2.28389 2.11989 2.1292 2.15741 1.99454 2.23599C1.85987 2.31457 1.7511 2.43078 1.6816 2.57035C0.00640373 5.92395 -0.251196 9.17835 0.966404 11.9496C2.032 14.3768 4.176 16.3096 7.216 17.5912C5.8352 18.5688 3.5104 19.7272 0.800004 19.7272C0.628227 19.7269 0.460943 19.782 0.322901 19.8843C0.184859 19.9865 0.0833889 20.1304 0.0335024 20.2948C-0.016384 20.4592 -0.0120374 20.6353 0.0458991 20.797C0.103836 20.9587 0.212285 21.0975 0.355204 21.1928C2.9552 22.9272 5.68 22.9272 8.2112 22.9272H8.288C16.0656 22.9272 22.368 16.6136 22.368 8.82795V8.06155C22.9488 7.46955 23.4016 6.86635 23.68 6.08395C23.9888 5.21035 24.0512 4.19915 23.9632 2.87435Z" fill="#F8F8F8"/>
</g>
<defs>
<clipPath id="clip0_3757_2735">
<rect width="24" height="24" fill="white" transform="translate(0 0.525391)"/>
</clipPath>
</defs>
</svg>
